# AST/ASF file generated using VICON BodyLanguage
# -----------------------------------------------
:version 1.10
:name VICON
:units
  mass 1.0
  length 0.45
  angle deg
:documentation
   .ast/.asf automatically generated from VICON data using
   VICON BodyBuilder and BodyLanguage model FoxedUp or BRILLIANT.MOD
:root
   order TX TY TZ RX RY RZ
   axis XYZ
   position 0 0 0  
   orientation 0 0 0 
:bonedata
  begin
     id 1 
     name lhipjoint
     direction 0.610259 -0.730986 0.305356 
     length 2.50941 
     axis 0 0 0  XYZ
  end
  begin
     id 2 
     name lfemur
     direction 0.34202 -0.939693 0  
     length 7.48822  
     axis 0 0 20  XYZ
    dof rx ry rz
    limits (-160.0 20.0)
           (-70.0 70.0)
           (-60.0 70.0)
  end
  begin
     id 3 
     name ltibia
     direction 0.34202 -0.939693 0   
     length 7.60141   
     axis 0 0 20   XYZ
    dof rx
    limits (-10.0 170.0)
  end
  begin
     id 4 
     name lfoot
     direction 0.0673488 -0.185039 0.980421   
     length 2.04049   
     axis -90 7.62852e-016 20   XYZ
    dof rx rz
    limits (-45.0 90.0)
           (-70.0 20.0)
  end
  begin
     id 5 
     name ltoes
     direction 1.5356e-011 -4.21729e-011 1   
     length 1.02897   
     axis -90 7.62852e-016 20   XYZ
    dof rx
    limits (-90.0 20.0)
  end
  begin
     id 6 
     name rhipjoint
     direction -0.57612 -0.754205 0.315056   
     length 2.43216  
     axis 0 0 0  XYZ 
  end
  begin
     id 7 
     name rfemur
     direction -0.34202 -0.939693 0   
     length 7.42799   
     axis 0 0 -20   XYZ
    dof rx ry rz
    limits (-160.0 20.0)
           (-70.0 70.0)
           (-70.0 60.0)
  end
  begin
     id 8 
     name rtibia
     direction -0.34202 -0.939693 0   
     length 7.69484   
     axis 0 0 -20   XYZ
    dof rx
    limits (-10.0 170.0)
 end
 begin
     id 9 
     name rfoot
     direction -0.111837 -0.30727 0.945028   
     length 2.15769  
     axis -90 -7.62852e-016 -20   XYZ
    dof rx rz
    limits (-45.0 90.0)
           (-20.0 70.0)
  end
  begin
     id 10 
     name rtoes
     direction -1.53539e-011 -4.21878e-011 1   
     length 1.07391   
     axis -90 -7.62852e-016 -20   XYZ
    dof rx
    limits (-90.0 20.0)
  end
  begin
     id 11 
     name lowerback
     direction 0.00552624 0.990109 -0.140195   
     length 2.12403   
     axis 0 0 0   XYZ
    dof rx ry rz
    limits (-20.0 45.0)
           (-30.0 30.0)
           (-30.0 30.0)
  end
  begin
     id 12 
     name upperback
     direction 0.00361898 0.999976 -0.00584723   
     length 2.13232   
     axis 0 0 0   XYZ
    dof rx ry rz
    limits (-20.0 45.0)
           (-30.0 30.0)
           (-30.0 30.0)
  end
  begin
     id 13 
     name thorax
     direction -0.000331275 0.998253 0.0590847   
     length 2.17688   
     axis 0 0 0   XYZ
    dof rx ry rz
    limits (-20.0 45.0)
           (-30.0 30.0)
           (-30.0 30.0)
  end
  begin
     id 14 
     name lowerneck
     direction -0.0561561 0.979832 0.19177   
     length 1.64159   
     axis 0 0 0   XYZ
    dof rx ry rz
    limits (-20.0 45.0)
           (-30.0 30.0)
           (-30.0 30.0)
  end
  begin
     id 15 
     name upperneck
     direction 0.0827153 0.979385 -0.184293   
     length 1.68939   
     axis 0 0 0   XYZ
    dof rx ry rz
    limits (-20.0 45.0)
           (-30.0 30.0)
           (-30.0 30.0)
  end
  begin
     id 16
     name head
     direction 0.0278583 0.995936 -0.0856488  
     length 1.70207  
     axis 0 0 0   XYZ
    dof rx ry rz
    limits (-20.0 45.0)
           (-30.0 30.0)
           (-30.0 30.0)
  end
  begin
     id 17 
     name lclavicle
     direction 0.950993 0.301131 -0.0702275  
     length 3.41652  
     axis 0 0 0   XYZ
    dof ry rz
    limits (-20.0 10.0)
           (0.0 20.0)
  end
  begin
     id 18 
     name lhumerus
     direction 1 -4.48981e-011 -3.9662e-029   
     length 5.32955   
     axis 180 -30 -90   XYZ
    dof rx ry rz
    limits (-60.0 90.0)
           (-90.0 90.0)
           (-90.0 90.0)
  end
  begin
     id 19
     name lradius
     direction 1 -4.48925e-011 -9.0549e-027   
     length 3.69232   
     axis 180 -30 -90   XYZ
    dof rx
    limits (-10.0 170.0)
  end
  begin
     id 20
     name lwrist
     direction 1 -4.49007e-011 -1.49005e-026   
     length 1.84616   
     axis 9.0955e-015 90 90   XYZ
    dof ry
    limits (-180.0 0.0)
 end
  begin
     id 21 
     name lhand
     direction 1 -4.49016e-011 -2.98023e-026   
     length 0.536598   
     axis 1.90115e-014 90 90   XYZ
    dof rx rz
    limits (-90.0 90.0)
           (-45.0 45.0)
  end
  begin
     id 22 
     name lfingers
     direction 1 -4.48924e-011 -5.9578e-026   
     length 0.432619   
     axis 3.80223e-014 90 90   XYZ
    dof rx
    limits (0.0 90.0)
  end
  begin
     id 23
     name lthumb
     direction 0.707107 -6.34947e-011 0.707107   
     length 0.621157   
     axis -90 45 -3.84942e-014   XYZ
    dof rx rz
    limits (-45.0 45.0)
           (-45.0 45.0)
  end
  begin
     id 24 
     name rclavicle
     direction -0.955495 0.276497 -0.102848   
     length 3.36357  
     axis 0 0 0   XYZ 
    dof ry rz
    limits (-10.0 20.0)
           (-20.0 0.0)
  end
  begin
     id 25 
     name rhumerus
     direction -1 -4.48961e-011 3.30983e-027  
     length 5.23431   
     axis 180 30 90   XYZ
    dof rx ry rz
    limits (-90.0 60.0)
           (-90.0 90.0)
           (-90.0 90.0)
  end
  begin
     id 26 
     name rradius
     direction -1 -4.48965e-011 -6.63263e-027   
     length 3.55301   
     axis 180 30 90   XYZ
    dof rx
    limits (-10.0 170.0)
  end
  begin
     id 27 
     name rwrist
     direction -1 -4.48942e-011 -1.48958e-026   
     length 1.77651   
     axis 9.0955e-015 -90 -90   XYZ
    dof ry
    limits (-180.0 0.0)
  end
  begin
     id 28
     name rhand
     direction -1 -4.48977e-011 -2.97966e-026   
     length 0.772522   
     axis 1.90115e-014 -90 -90   XYZ
    dof rx rz
    limits (-90.0 90.0)
           (-45.0 45.0)
  end
  begin
     id 29
     name rfingers
     direction -1 -4.49135e-011 -5.96389e-026   
     length 0.622827   
     axis 3.80223e-014 -90 -90   XYZ
    dof rx
    limits (0.0 90.0)
  end
  begin
     id 30
     name rthumb
     direction -0.707107 -6.34969e-011 0.707107   
     length 0.894259   
     axis -90 -45 3.84942e-014   XYZ
    dof rx rz
    limits (-45.0 45.0)
           (-45.0 45.0)
  end
:hierarchy
  begin
    root lhipjoint rhipjoint lowerback
    lhipjoint lfemur
    lfemur ltibia
    ltibia lfoot
    lfoot ltoes
    rhipjoint rfemur
    rfemur rtibia
    rtibia rfoot
    rfoot rtoes
    lowerback upperback
    upperback thorax
    thorax lowerneck lclavicle rclavicle
    lowerneck upperneck
    upperneck head
    lclavicle lhumerus
    lhumerus lradius
    lradius lwrist
    lwrist lhand lthumb
    lhand lfingers
    rclavicle rhumerus
    rhumerus rradius
    rradius rwrist
    rwrist rhand rthumb
    rhand rfingers
  end

#!OML:ASF F:\VICON\USERDATA\INSTALL\rory3\rory3.ASF
:FULLY-SPECIFIED
:DEGREES
16
root 15.5389 17.8088 -10.9139 1.60409 -51.2048 2.23189
lowerback 6.96017 -0.125648 -0.941234
upperback -0.476272 -0.200002 1.13076
thorax -4.39197 -0.0653991 1.72208
lowerneck -21.5387 -3.58386 -9.34378
upperneck 25.8869 -3.84493 6.33323
head 12.4804 -1.85023 3.33258
rclavicle -5.89894e-014 -7.55382e-015
rhumerus -35.5694 -1.26914 -81.2781
rradius 32.0644
rwrist 4.60135
rhand -15.8733 10.3879
rfingers 7.12502
rthumb 10.3224 -19.3387
lclavicle -5.89894e-014 -7.55382e-015
lhumerus -37.1653 0.891288 84.541
lradius 34.1892
lwrist -5.07222
lhand -15.8127 24.7967
lfingers 7.12502
lthumb 10.3809 54.5204
rfemur -11.1385 1.26599 22.8406
rtibia 34.2013
rfoot -20.9606 -6.3366
rtoes 0.94846
lfemur -8.08517 -4.0636 -23.2444
ltibia 26.8334
lfoot -15.9033 4.85206
ltoes -3.00048
17
root 15.5346 17.8065 -10.9137 1.65325 -51.1598 2.15889
lowerback 6.98733 -0.162528 -0.939882
upperback -0.484401 -0.247147 1.17934
thorax -4.41385 -0.0880622 1.77702
lowerneck -21.4953 -3.54952 -9.32971
upperneck 25.8798 -3.78748 6.27592
head 12.4618 -1.8317 3.3177
rclavicle -5.20816e-014 -2.46493e-014
rhumerus -35.675 -1.19231 -81.2572
rradius 32.0163
rwrist 4.56945
rhand -15.9091 10.47
rfingers 7.12502
rthumb 10.2878 -19.2584
lclavicle -5.20816e-014 -2.46493e-014
lhumerus -37.2489 0.999596 84.5768
lradius 34.1951
lwrist -4.96421
lhand -16.1149 24.8076
lfingers 7.12502
lthumb 10.0893 54.5457
rfemur -11.0706 1.25962 22.9108
rtibia 34.123
rfoot -20.9385 -6.43674
rtoes 0.639053
lfemur -8.12373 -3.882 -23.1607
ltibia 26.9206
lfoot -15.8077 4.59044
ltoes -2.82384
18
root 15.5288 17.8074 -10.9115 1.63797 -51.1546 2.16005
lowerback 6.98349 -0.163747 -0.945807
upperback -0.481575 -0.249827 1.1656
thorax -4.40867 -0.0894547 1.76632
lowerneck -21.376 -3.53678 -9.24059
upperneck 25.7659 -3.78483 6.20205
head 12.3885 -1.83144 3.27189
rclavicle 3.4837e-014 3.18055e-015
rhumerus -35.8001 -1.34501 -81.2365
rradius 31.9628
rwrist 4.62674
rhand -15.9272 10.5484
rfingers 7.12502
rthumb 10.2704 -19.1809
lclavicle 3.4837e-014 3.18055e-015
lhumerus -37.3828 0.996037 84.6119
lradius 34.2585
lwrist -4.82085
lhand -15.8665 24.9363
lfingers 7.12502
lthumb 10.329 54.6626
rfemur -11.0072 1.30635 22.9212
rtibia 34.0927
rfoot -20.9356 -6.55591
rtoes 0.334623
lfemur -8.09609 -3.71834 -23.1555
ltibia 26.9508
lfoot -15.7963 4.31894
ltoes -0.607542
19
root 15.5244 17.8103 -10.911 1.55285 -51.1905 2.24641
lowerback 7.01582 -0.124463 -1.03568
upperback -0.489012 -0.205654 1.15199
thorax -4.43609 -0.0652797 1.79838
lowerneck -21.2868 -3.55312 -9.26234
upperneck 25.8018 -3.81736 6.21655
head 12.3888 -1.84864 3.27654
rclavicle 2.41523e-014 -3.18055e-015
rhumerus -35.9426 -1.41912 -81.209
rradius 31.9533
rwrist 4.5828
rhand -16.0443 10.3343
rfingers 7.12502
rthumb 10.1574 -19.4005
lclavicle 2.41523e-014 -3.18055e-015
lhumerus -37.506 1.04027 84.6391
lradius 34.3216
lwrist -4.82927
lhand -15.0555 25.0216
lfingers 7.12502
lthumb 11.1112 54.7075
rfemur -10.9794 1.33611 22.8736
rtibia 34.092
rfoot -20.9432 -6.4908
rtoes 0.533555
lfemur -8.03744 -3.73358 -23.2247
ltibia 26.95
lfoot -15.8919 4.26536
ltoes 1.42551
20
root 15.5194 17.8088 -10.911 1.52928 -51.1497 2.2837
lowerback 7.00496 -0.0777299 -1.06256
upperback -0.484176 -0.146304 1.13413
thorax -4.42722 -0.0355228 1.78853
lowerneck -21.3884 -3.59648 -9.21356
upperneck 25.9761 -3.88415 6.17524
head 12.4829 -1.88013 3.24444
rclavicle 7.89672e-014 9.54166e-015
rhumerus -36.0241 -1.68282 -81.1154
rradius 31.8644
rwrist 4.59041
rhand -16.0832 10.3548
rfingers 7.12502
rthumb 10.1199 -19.3818
lclavicle 7.89672e-014 9.54166e-015
lhumerus -37.4565 0.895716 84.6606
lradius 34.2882
lwrist -4.74649
lhand -14.472 24.881
lfingers 7.12502
lthumb 11.674 54.5358
rfemur -10.9762 1.33833 22.8617
rtibia 34.0956
rfoot -21.0085 -6.58567
rtoes 0.41962
lfemur -8.05046 -3.84728 -23.2436
ltibia 26.9508
lfoot -15.8375 4.54542
ltoes -1.82135
21
root 15.5157 17.8063 -10.9091 1.49804 -51.1481 2.35431
lowerback 6.97878 -0.0463721 -1.06968
upperback -0.495082 -0.105917 1.10789
thorax -4.42539 -0.0155302 1.76088
lowerneck -21.4246 -3.61911 -9.2732
upperneck 26.0501 -3.92128 6.25756
head 12.5265 -1.89239 3.2818
rclavicle -1.83379e-014 1.03368e-014
rhumerus -36.0956 -1.9255 -81.0246
rradius 31.7316
rwrist 4.72935
rhand -15.909 10.5241
rfingers 7.12502
rthumb 10.2879 -19.2042
lclavicle -1.83379e-014 1.03368e-014
lhumerus -37.4351 0.73951 84.7171
lradius 34.2341
lwrist -4.56559
lhand -14.5663 24.6606
lfingers 7.12502
lthumb 11.5831 54.3205
rfemur -10.9959 1.22169 22.8046
rtibia 34.0941
rfoot -20.9887 -6.5646
rtoes -0.0933261
lfemur -8.06787 -4.02966 -23.3029
ltibia 26.9626
lfoot -15.802 4.82865
ltoes -3.94815
22
root 15.5127 17.8066 -10.9085 1.47178 -51.1456 2.35734
lowerback 6.99248 -0.00772905 -1.07364
upperback -0.471356 -0.0548071 1.11265
thorax -4.41041 0.00961545 1.76255
lowerneck -21.2692 -3.60348 -9.3879
upperneck 26.0021 -3.92759 6.43792
head 12.4833 -1.88508 3.36967
rclavicle 1.14947e-013 -1.35174e-014
rhumerus -36.1266 -2.13215 -80.9113
rradius 31.6211
rwrist 4.90191
rhand -15.8675 10.5197
rfingers 7.12502
rthumb 10.328 -19.2067
lclavicle 1.14947e-013 -1.35174e-014
lhumerus -37.42 0.697774 84.7969
lradius 34.1696
lwrist -4.64099
lhand -14.8429 24.2853
lfingers 7.12502
lthumb 11.3163 53.96
rfemur -10.9517 1.18327 22.8092
rtibia 34.0761
rfoot -20.9271 -6.573
rtoes -0.662238
lfemur -8.03909 -3.98027 -23.3027
ltibia 26.9959
lfoot -15.917 4.55572
ltoes -0.695103
23
root 15.5097 17.8104 -10.9075 1.52548 -51.1084 2.29382
lowerback 6.98659 0.015912 -0.984671
upperback -0.469144 -0.0160889 1.10683
thorax -4.40623 0.0265817 1.70225
lowerneck -21.1073 -3.59857 -9.42661
upperneck 25.9759 -3.94821 6.51866
head 12.4449 -1.89027 3.40377
rclavicle 2.25621e-014 -9.93923e-015
rhumerus -36.2263 -2.27972 -80.8349
rradius 31.581
rwrist 4.90406
rhand -15.7934 10.5584
rfingers 7.12502
rthumb 10.3995 -19.1644
lclavicle 2.25621e-014 -9.93923e-015
lhumerus -37.4791 0.584493 84.8595
lradius 34.1737
lwrist -4.75228
lhand -14.8395 24.121
lfingers 7.12502
lthumb 11.3195 53.7956
rfemur -10.9251 1.22696 22.8703
rtibia 34.0466
rfoot -20.8899 -6.53816
rtoes -0.0836835
lfemur -8.0462 -3.98724 -23.2609
ltibia 27.0413
lfoot -16.0031 4.34771
ltoes 2.13598
24
root 15.5084 17.8104 -10.906 1.65329 -51.0442 2.11439
lowerback 6.997 0.0117245 -0.829119
upperback -0.457808 -0.0074891 1.1402
thorax -4.40056 0.0273683 1.64838
lowerneck -21.1419 -3.66795 -9.36337
upperneck 25.9554 -4.01681 6.36155
head 12.4457 -1.93373 3.31948
rclavicle -2.09718e-014 8.74653e-015
rhumerus -36.3192 -2.33841 -80.7831
rradius 31.584
rwrist 4.83607
rhand -15.6392 10.6362
rfingers 7.12502
rthumb 10.5482 -19.0791
lclavicle -2.09718e-014 8.74653e-015
lhumerus -37.5456 0.811252 84.8753
lradius 34.1985
lwrist -4.97539
lhand -14.984 24.2732
lfingers 7.12502
lthumb 11.1802 53.9553
rfemur -10.8986 1.07693 22.9895
rtibia 34.0313
rfoot -20.8707 -6.38941
rtoes 0.3739
lfemur -8.03023 -4.08906 -23.1451
ltibia 27.0679
lfoot -15.9827 4.4458
ltoes 1.71043
25
root 15.5054 17.8089 -10.9055 1.73496 -51.0062 2.03917
lowerback 6.97043 0.0220412 -0.801381
upperback -0.45656 0.00988689 1.17051
thorax -4.3849 0.0355237 1.66226
lowerneck -21.2135 -3.7582 -9.38115
upperneck 25.9278 -4.11762 6.32039
head 12.4588 -1.9835 3.28824
rclavicle -6.53008e-014 -1.19271e-015
rhumerus -36.3975 -2.38599 -80.7194
rradius 31.5881
rwrist 4.73571
rhand -15.5861 10.643
rfingers 7.12502
rthumb 10.5995 -19.0697
lclavicle -6.53008e-014 -1.19271e-015
lhumerus -37.5967 1.09714 84.8603
lradius 34.2398
lwrist -5.00667
lhand -15.1366 24.2124
lfingers 7.12502
lthumb 11.033 53.9024
rfemur -10.9107 1.06294 23.0471
rtibia 34.0254
rfoot -20.7941 -6.45836
rtoes -0.450556
lfemur -8.05855 -4.17908 -23.0904
ltibia 27.0805
lfoot -15.9519 4.50594
ltoes 1.42234
